{
  "source": "C:\\Users\\Peter\\Desktop\\stuff\\MIUN\\quantitative_research\\video_compression\\videos\\UVG\\HoneyBee_1920x1080_120fps_420_8bit_YUV.y4m",
  "output": "C:\\Users\\Peter\\Desktop\\stuff\\MIUN\\quantitative_research\\video_compression\\compressed_videos\\UVG\\h264\\4\\HoneyBee_1920x1080_120fps_420_8bit_YUV_h264.mp4",
  "codec": "h264",
  "ok": "[yuv4mpegpipe @ 00000162ede06600] Stream #0: not enough frames to estimate rate; consider increasing probesize\nInput #0, yuv4mpegpipe, from 'C:\\Users\\Peter\\Desktop\\stuff\\MIUN\\quantitative_research\\video_compression\\videos\\UVG\\HoneyBee_1920x1080_120fps_420_8bit_YUV.y4m':\n  Duration: 00:00:05.00, start: 0.000000, bitrate: 2985989 kb/s\n  Stream #0:0: Video: rawvideo (I420 / 0x30323449), yuv420p(progressive), 1920x1080, 120 fps, 120 tbr, 120 tbn\n[out#0/mp4 @ 00000162ede0a240] Codec AVOption b:a (set bitrate (in bits/s)) has not been used for any stream. The most likely reason is either wrong type (e.g. a video option with no video streams) or that it is a private option of some decoder which was not actually used for any stream.\nStream mapping:\n  Stream #0:0 -> #0:0 (rawvideo (native) -> h264 (libx264))\nPress [q] to stop, [?] for help\n[libx264 @ 00000162ede0ca80] using cpu capabilities: MMX2 SSE2Fast SSSE3 SSE4.2 AVX FMA3 BMI2 AVX2\n[libx264 @ 00000162ede0ca80] profile High, level 5.1, 4:2:0, 8-bit\n[libx264 @ 00000162ede0ca80] 264 - core 165 r3222 b35605a - H.264/MPEG-4 AVC codec - Copyleft 2003-2025 - http://www.videolan.org/x264.html - options: cabac=1 ref=5 deblock=1:0:0 analyse=0x3:0x113 me=hex subme=8 psy=1 psy_rd=1.00:0.00 mixed_ref=1 me_range=16 chroma_me=1 trellis=2 8x8dct=1 cqm=0 deadzone=21,11 fast_pskip=1 chroma_qp_offset=-2 threads=18 lookahead_threads=3 sliced_threads=0 nr=0 decimate=1 interlaced=0 bluray_compat=0 constrained_intra=0 bframes=3 b_pyramid=2 b_adapt=1 b_bias=0 direct=3 weightb=1 open_gop=0 weightp=2 keyint=250 keyint_min=25 scenecut=40 intra_refresh=0 rc_lookahead=50 rc=cbr mbtree=1 bitrate=4000 ratetol=1.0 qcomp=0.60 qpmin=0 qpmax=69 qpstep=4 vbv_maxrate=4000 vbv_bufsize=4000 nal_hrd=none filler=0 ip_ratio=1.40 aq=1:1.00\nOutput #0, mp4, to 'C:\\Users\\Peter\\Desktop\\stuff\\MIUN\\quantitative_research\\video_compression\\compressed_videos\\UVG\\h264\\4\\HoneyBee_1920x1080_120fps_420_8bit_YUV_h264.mp4':\n  Metadata:\n    encoder         : Lavf62.3.100\n  Stream #0:0: Video: h264 (avc1 / 0x31637661), yuv420p(tv, progressive), 1920x1080, q=2-31, 4000 kb/s, 120 fps, 15360 tbn\n    Metadata:\n      encoder         : Lavc62.11.100 libx264\n    Side data:\n      cpb: bitrate max/min/avg: 4000000/0/4000000 buffer size: 4000000 vbv_delay: N/A\nframe=    0 fps=0.0 q=0.0 size=       0KiB time=N/A bitrate=N/A speed=N/A elapsed=0:00:00.51    \nframe=    0 fps=0.0 q=0.0 size=       0KiB time=N/A bitrate=N/A speed=N/A elapsed=0:00:01.07    \nframe=   32 fps= 20 q=37.0 size=       0KiB time=00:00:00.25 bitrate=   1.5kbits/s speed=0.157x elapsed=0:00:01.59    \nframe=   64 fps= 30 q=35.0 size=       0KiB time=00:00:00.51 bitrate=   0.7kbits/s speed=0.244x elapsed=0:00:02.11    \nframe=   92 fps= 35 q=34.0 size=       0KiB time=00:00:00.75 bitrate=   0.5kbits/s speed=0.282x elapsed=0:00:02.65    \nframe=  124 fps= 39 q=34.0 size=     256KiB time=00:00:01.01 bitrate=2063.1kbits/s speed=0.319x elapsed=0:00:03.18    \nframe=  156 fps= 42 q=34.0 size=     256KiB time=00:00:01.28 bitrate=1634.4kbits/s speed=0.346x elapsed=0:00:03.70    \nframe=  188 fps= 44 q=35.0 size=     256KiB time=00:00:01.55 bitrate=1353.2kbits/s speed=0.364x elapsed=0:00:04.25    \nframe=  228 fps= 48 q=36.0 size=     256KiB time=00:00:01.85 bitrate=1133.8kbits/s speed=0.386x elapsed=0:00:04.79    \nframe=  242 fps= 45 q=36.0 size=     256KiB time=00:00:02.00 bitrate=1048.8kbits/s speed=0.375x elapsed=0:00:05.32    \nframe=  274 fps= 47 q=34.0 size=     512KiB time=00:00:02.26 bitrate=1850.6kbits/s speed=0.387x elapsed=0:00:05.85    \nframe=  310 fps= 48 q=34.0 size=     512KiB time=00:00:02.56 bitrate=1634.3kbits/s speed=0.401x elapsed=0:00:06.39    \nframe=  346 fps= 50 q=34.0 size=     512KiB time=00:00:02.86 bitrate=1463.3kbits/s speed=0.413x elapsed=0:00:06.94    \nframe=  379 fps= 51 q=34.0 size=     512KiB time=00:00:03.13 bitrate=1338.7kbits/s speed=0.419x elapsed=0:00:07.47    \nframe=  414 fps= 52 q=34.0 size=     512KiB time=00:00:03.43 bitrate=1221.8kbits/s speed=0.428x elapsed=0:00:08.02    \nframe=  450 fps= 52 q=36.0 size=     512KiB time=00:00:03.73 bitrate=1123.6kbits/s speed=0.435x elapsed=0:00:08.57    \nframe=  478 fps= 52 q=35.0 size=     512KiB time=00:00:03.96 bitrate=1057.5kbits/s speed=0.436x elapsed=0:00:09.10    \nframe=  496 fps= 51 q=36.0 size=     512KiB time=00:00:04.11 bitrate=1019.0kbits/s speed=0.427x elapsed=0:00:09.63    \nframe=  532 fps= 52 q=34.0 size=     768KiB time=00:00:04.38 bitrate=1435.4kbits/s speed=0.431x elapsed=0:00:10.15    \nframe=  577 fps= 54 q=27.0 size=     768KiB time=00:00:04.76 bitrate=1320.0kbits/s speed=0.445x elapsed=0:00:10.70    \n[mp4 @ 00000162ede0a340] Starting second pass: moving the moov atom to the beginning of the file\n[out#0/mp4 @ 00000162ede0a240] video:1042KiB audio:0KiB subtitle:0KiB other streams:0KiB global headers:0KiB muxing overhead: 0.754972%\nframe=  600 fps= 53 q=-1.0 Lsize=    1050KiB time=00:00:04.98 bitrate=1726.6kbits/s speed=0.444x elapsed=0:00:11.21    \n[libx264 @ 00000162ede0ca80] frame I:3     Avg QP:31.67  size: 71624\n[libx264 @ 00000162ede0ca80] frame P:151   Avg QP:29.50  size:  3599\n[libx264 @ 00000162ede0ca80] frame B:446   Avg QP:35.40  size:   691\n[libx264 @ 00000162ede0ca80] consecutive B-frames:  0.8%  0.0%  0.5% 98.7%\n[libx264 @ 00000162ede0ca80] mb I  I16..4: 22.5% 71.6%  5.9%\n[libx264 @ 00000162ede0ca80] mb P  I16..4:  0.0%  0.1%  0.0%  P16..4: 14.5%  0.8%  3.7%  0.0%  0.0%    skip:80.9%\n[libx264 @ 00000162ede0ca80] mb B  I16..4:  0.0%  0.0%  0.0%  B16..8: 12.9%  0.0%  0.0%  direct: 0.0%  skip:87.0%  L0:13.1% L1:86.9% BI: 0.1%\n[libx264 @ 00000162ede0ca80] 8x8 transform intra:71.6% inter:79.8%\n[libx264 @ 00000162ede0ca80] direct mvs  spatial:97.8% temporal:2.2%\n[libx264 @ 00000162ede0ca80] coded y,uvDC,uvAC intra: 54.1% 78.1% 45.1% inter: 0.4% 1.7% 0.1%\n[libx264 @ 00000162ede0ca80] i16 v,h,dc,p: 29% 13%  6% 52%\n[libx264 @ 00000162ede0ca80] i8 v,h,dc,ddl,ddr,vr,hd,vl,hu:  6%  5%  2% 13% 18% 18% 15% 12% 13%\n[libx264 @ 00000162ede0ca80] i4 v,h,dc,ddl,ddr,vr,hd,vl,hu:  6%  3%  1% 13% 19% 19% 15% 12% 12%\n[libx264 @ 00000162ede0ca80] i8c dc,h,v,p: 36% 15% 21% 29%\n[libx264 @ 00000162ede0ca80] Weighted P-Frames: Y:0.0% UV:0.0%\n[libx264 @ 00000162ede0ca80] ref P L0: 62.1% 22.2%  9.8%  2.8%  3.1%\n[libx264 @ 00000162ede0ca80] ref B L0: 93.3%  4.2%  2.2%  0.3%\n[libx264 @ 00000162ede0ca80] ref B L1: 98.4%  1.6%\n[libx264 @ 00000162ede0ca80] kb/s:1706.71\n",
  "seconds": 11.411415338516235,
  "probe_out": {}
}